<svg id="Layer_1" data-name="Layer 1" xmlns="http://www.w3.org/2000/svg" viewBox="0 0 150 54.36"><defs><style>.cls-1{fill:#2e276b;}.cls-2{fill:#e6292d;}</style></defs><g id="Vector_Smart_Object" data-name="Vector Smart Object"><polygon class="cls-1" points="54.53 0.33 52.11 10.39 58.89 10.39 60.3 7.11 63.74 7.11 59.22 25.83 55.08 25.83 53.68 31.68 73.02 31.68 74.34 25.83 69.9 25.83 74.42 7.11 77.46 7.11 77.23 10.39 84.09 10.39 86.59 0.33 54.53 0.33"/><path class="cls-1" d="M277.06,127.14c.17-4.13,1.1-7,2.5-8.66-6-1-11-1.33-14.9-.7-4.52.62-7.64,2.26-9.52,5a10.51,10.51,0,0,0-2.18,5.07c-.3,3.35,2,6.16,6.94,8.5,2.74,1.17,3.83,2.49,3.44,4.05-.94,1.87-3.36,2.5-7.41,1.87l.08-2.88h-6.55l-2.27,8.81,3.51.71a40.25,40.25,0,0,0,14-.08c6.24-2,9.83-5.3,10.53-10.3.39-3.43-2.1-6.32-7.33-8.66-3.12-1.32-4-2.73-2.88-4.37,1.09-1.48,3.12-1.63,6.08-.7v2.34Z" transform="translate(-129.56 -117.46)"/><polygon class="cls-1" points="124.65 0.33 121.14 0.33 109.13 0.33 107.65 6.18 110.61 6.18 101.34 21.7 101.34 6.18 104.37 6.18 105.77 0.33 89.08 0.33 87.6 6.18 90.17 6.18 91.9 31.68 104.45 31.68 121.14 5.79 124.65 0.33"/></g><path class="cls-2" d="M192.47,153.82a6.11,6.11,0,0,1,3.14,2.27,8.07,8.07,0,0,1,1.31,2.9,13.69,13.69,0,0,1,.35,3,11.58,11.58,0,0,1-1.48,6.06,6.69,6.69,0,0,1-6.18,3.34h-7.94V153.43h7.94A10.22,10.22,0,0,1,192.47,153.82Zm-7.06,2.72v11.7H189a3.84,3.84,0,0,0,3.81-2.61,9.06,9.06,0,0,0,.59-3.42,8.2,8.2,0,0,0-.89-4.2q-.87-1.47-3.51-1.47Z" transform="translate(-129.56 -117.46)"/><path class="cls-2" d="M203.67,171.35h-3.83V153.43h3.83Z" transform="translate(-129.56 -117.46)"/><path class="cls-2" d="M219.65,159a3.52,3.52,0,0,0-2.14-2.56,5.29,5.29,0,0,0-2.11-.4,4.62,4.62,0,0,0-3.65,1.63,7.23,7.23,0,0,0-1.44,4.91q0,3.3,1.55,4.67a5.16,5.16,0,0,0,3.53,1.37,4.63,4.63,0,0,0,3.17-1.08,4.58,4.58,0,0,0,1.53-2.83h-4.26v-3h7.67v9.61H221l-.39-2.23a9,9,0,0,1-2,1.79,7.23,7.23,0,0,1-3.75.91,7.92,7.92,0,0,1-6-2.47,9.26,9.26,0,0,1-2.43-6.78,9.8,9.8,0,0,1,2.46-7,8.5,8.5,0,0,1,6.51-2.62A8.69,8.69,0,0,1,221,154.7a6.43,6.43,0,0,1,2.45,4.32Z" transform="translate(-129.56 -117.46)"/><path class="cls-2" d="M230.68,171.35h-3.82V153.43h3.82Z" transform="translate(-129.56 -117.46)"/><path class="cls-2" d="M247.67,153.43v3.17h-5.51v14.75h-3.88V156.6h-5.53v-3.17Z" transform="translate(-129.56 -117.46)"/><path class="cls-2" d="M253.3,153.43h4.35l6.52,17.92H260l-1.22-3.68H252l-1.25,3.68h-4ZM253,164.58h4.72l-2.33-7.05Z" transform="translate(-129.56 -117.46)"/><path class="cls-2" d="M266.51,153.43h3.85v14.7h9.2v3.22H266.51Z" transform="translate(-129.56 -117.46)"/><polygon class="cls-2" points="9.01 17.25 9.01 45.36 23.22 45.36 23.22 54.11 0 54.11 0 8.49 23.22 8.49 23.22 17.25 9.01 17.25"/><path class="cls-1" d="M152.83,117.65h-.05V126h.05a14.29,14.29,0,1,1,0,28.57h-.05v8.3h.05a22.59,22.59,0,1,0,0-45.17Z" transform="translate(-129.56 -117.46)"/></svg>